<svg class="svg-icon" style="width: 1em;height: 1em;vertical-align: middle;fill: currentColor;overflow: hidden;" viewBox="0 0 1024 1024" version="1.1" xmlns="http://www.w3.org/2000/svg"><path d="M796.586667 171.221333h-199.594667c-30.506667 0-55.381333 24.96-55.381333 55.381334V426.24c0 30.506667 24.96 55.381333 55.381333 55.381333h199.594667c30.506667 0 55.381333-24.96 55.381333-55.381333V226.602667a55.466667 55.466667 0 0 0-55.381333-55.381334zM802.133333 426.24a5.546667 5.546667 0 0 1-5.418666 5.418667h-199.594667a5.546667 5.546667 0 0 1-5.376-5.418667V226.602667a5.546667 5.546667 0 0 1 5.376-5.376h199.594667a5.546667 5.546667 0 0 1 5.418666 5.376V426.24z" fill="#B2B2B2" /><path d="M664.917333 294.528h63.872V358.4h-63.872V294.528zM426.24 171.221333H226.688c-30.506667 0-55.381333 24.96-55.381333 55.381334V426.24c0 30.506667 24.96 55.381333 55.381333 55.381333h199.594667c30.506667 0 55.381333-24.96 55.381333-55.381333V226.602667a55.466667 55.466667 0 0 0-55.381333-55.381334z m5.504 254.976a5.546667 5.546667 0 0 1-5.418667 5.418667H226.773333a5.546667 5.546667 0 0 1-5.376-5.418667V226.602667a5.546667 5.546667 0 0 1 5.376-5.376h199.594667a5.546667 5.546667 0 0 1 5.418667 5.376V426.24z" fill="#B2B2B2" /><path d="M294.613333 294.528h63.872V358.4H294.613333V294.528z m131.669334 247.04H226.688c-30.506667 0-55.381333 24.917333-55.381333 55.466667v199.552c0 30.506667 24.96 55.381333 55.381333 55.381333h199.594667c30.506667 0 55.381333-24.96 55.381333-55.381333v-199.594667a55.466667 55.466667 0 0 0-55.381333-55.466667z m5.504 254.933333a5.546667 5.546667 0 0 1-5.418667 5.418667H226.773333a5.546667 5.546667 0 0 1-5.376-5.418667V596.906667a5.546667 5.546667 0 0 1 5.376-5.376h199.594667a5.546667 5.546667 0 0 1 5.418667 5.376v199.594666z" fill="#B2B2B2" /><path d="M294.613333 664.832h63.872v63.872H294.613333v-63.872z m496.597334-8.448h-79.445334c-26.24 0-47.616 21.333333-47.616 47.616v96.128l-71.296 0.810667v-119.594667a25.045333 25.045333 0 1 0-50.090666 0v119.466667c0 27.136 22.101333 49.194667 49.152 49.194666h73.728c26.752 0 48.512-21.76 48.512-48.512v-95.146666h71.338666v118.698666a25.045333 25.045333 0 1 0 50.048 0v-124.330666a44.373333 44.373333 0 0 0-44.373333-44.330667z m-223.317334-33.877333a25.045333 25.045333 0 0 0 25.002667-25.002667V537.6a25.045333 25.045333 0 1 0-50.048 0v59.904a25.173333 25.173333 0 0 0 25.045333 25.002667z m146.346667-25.002667V537.6a25.045333 25.045333 0 1 0-50.090667 0v59.904a25.045333 25.045333 0 1 0 50.090667 0z m96.256-84.821333a25.045333 25.045333 0 0 0-25.002667 25.002666v59.904a25.045333 25.045333 0 1 0 50.048 0v-59.904a25.045333 25.045333 0 0 0-25.045333-25.002666z" fill="#B2B2B2" /></svg>