<svg id="Layer_1" data-name="Layer 1" xmlns="http://www.w3.org/2000/svg" xmlns:xlink="http://www.w3.org/1999/xlink" viewBox="0 0 444 123.86"><defs><radialGradient id="radial-gradient" cx="370.49" cy="-1003.36" fy="-1012.4821225900704" r="127.45" gradientTransform="translate(0 1099.63) scale(1 0.87)" gradientUnits="userSpaceOnUse"><stop offset="0" stop-color="#feffff"/><stop offset="0.4" stop-color="#feffff"/><stop offset="0.51" stop-color="#f9fcfc"/><stop offset="0.62" stop-color="#edf3f5"/><stop offset="0.7" stop-color="#dee9ec"/><stop offset="0.72" stop-color="#d8e4e8"/><stop offset="0.76" stop-color="#ccd8df"/><stop offset="0.8" stop-color="#c8d5dd"/><stop offset="0.83" stop-color="#ccd6de"/><stop offset="0.85" stop-color="#d8dbe2"/><stop offset="0.88" stop-color="#ede3e9"/><stop offset="0.9" stop-color="#ffebef"/></radialGradient><radialGradient id="radial-gradient-2" cx="64.38" cy="226.13" fy="217.01000939056223" r="127.45" gradientTransform="matrix(1, 0, 0, 1, 0, 0)" xlink:href="#radial-gradient"/><radialGradient id="radial-gradient-3" cx="220.14" cy="-3283.71" fy="-3283.705914812188" r="384.44" gradientTransform="translate(0 2541.41) scale(1 0.7)" xlink:href="#radial-gradient"/><radialGradient id="radial-gradient-4" cx="134.7" cy="2729.67" r="32.12" gradientTransform="translate(0 -3848.66) scale(1 1.46)" gradientUnits="userSpaceOnUse"><stop offset="0" stop-color="#f60"/><stop offset="0.5" stop-color="#ff4500"/><stop offset="0.7" stop-color="#fc4301"/><stop offset="0.82" stop-color="#f43f07"/><stop offset="0.92" stop-color="#e53812"/><stop offset="1" stop-color="#d4301f"/></radialGradient><radialGradient id="radial-gradient-5" cx="22207.71" cy="2729.67" r="32.12" gradientTransform="matrix(-1, 0, 0, 1.46, 22505.53, -3848.66)" xlink:href="#radial-gradient-4"/><radialGradient id="radial-gradient-6" cx="215.93" cy="-4199.54" r="113.26" gradientTransform="translate(0 2809.6) scale(1 0.66)" gradientUnits="userSpaceOnUse"><stop offset="0" stop-color="#172e35"/><stop offset="0.29" stop-color="#0e1c21"/><stop offset="0.73" stop-color="#030708"/><stop offset="1"/></radialGradient><radialGradient id="radial-gradient-7" cx="315.81" cy="206.33" fy="206.3289401251168" r="99.42" gradientTransform="translate(0 172.06) scale(1 0.98)" xlink:href="#radial-gradient"/><radialGradient id="radial-gradient-8" cx="274.38" cy="273.9" r="81.49" gradientUnits="userSpaceOnUse"><stop offset="0.48" stop-color="#7a9299"/><stop offset="0.67" stop-color="#172e35"/><stop offset="0.75"/><stop offset="0.82" stop-color="#172e35"/></radialGradient><symbol id="Snoo" data-name="Snoo" viewBox="0 0 432.21 377.72"><circle cx="369.16" cy="189.17" r="63.05" style="fill:url(#radial-gradient)"/><circle cx="63.05" cy="189.17" r="63.05" style="fill:url(#radial-gradient-2)"/><ellipse cx="216.26" cy="135" rx="180" ry="135" style="fill:url(#radial-gradient-3)"/><path d="M163,148.13C162,125.26,146.81,117,129.13,117S98,128.67,99,151.54s16.23,38,33.91,38S164.1,171,163,148.13Z" style="fill:#842123"/><path d="M333.48,151.54c1-22.87-12.42-34.58-30.09-34.58s-32.85,8.3-33.91,31.17,12.42,41.42,30.09,41.42,32.85-15.13,33.91-38Z" style="fill:#842123"/><path d="M163.05,146.13c-1-21.41-15.19-29.17-31.73-29.17s-29.15,11.63-28.16,33,15.19,35.41,31.73,35.41,29.15-17.86,28.16-39.27Z" style="fill:url(#radial-gradient-4)"/><path d="M269.47,146.13c1-21.41,15.19-29.17,31.73-29.17s29.15,11.63,28.16,33-15.19,35.41-31.73,35.41-29.15-17.86-28.16-39.27Z" style="fill:url(#radial-gradient-5)"/><ellipse cx="145.19" cy="165.68" rx="7" ry="7.64" style="fill:#ffc49c"/><ellipse cx="311.64" cy="165.68" rx="7" ry="7.64" style="fill:#ffc49c"/><path d="M216.26,101.7c-22.32,0-43.71-1.08-63.49-3a5,5,0,0,1-4.21-6.86,73.94,73.94,0,0,1,135.4,0,5,5,0,0,1-4.21,6.86c-19.78,2-41.17,3-63.49,3Z" style="fill:#bbcfda"/><path d="M216.26,96.74A630.9,630.9,0,0,1,153,93.65a5.07,5.07,0,0,1-4.2-7,73.17,73.17,0,0,1,135,0,5.08,5.08,0,0,1-4.2,7,630.9,630.9,0,0,1-63.29,3.09Z" style="fill:#fff"/><path d="M216.26,99.32a623.64,623.64,0,0,1-62.3-3,5,5,0,0,1-4.13-6.86,72,72,0,0,1,132.88,0,5,5,0,0,1-4.13,6.86,620.73,620.73,0,0,1-62.31,3Z" style="fill:url(#radial-gradient-6)"/><circle cx="314.84" cy="333.04" r="44.68" style="fill:url(#radial-gradient-7)"/><path d="M215.62,264.31c-5.35,0-9.69,2.24-9.69,5.69a72.67,72.67,0,0,0,72.59,72.59,9.69,9.69,0,1,0,0-19.38A53.28,53.28,0,0,1,225.3,270c0-3.45-4.34-5.69-9.69-5.69Z" style="fill:url(#radial-gradient-8)"/><path d="M151.29,135.54c0-8.28-8.81-12-19.69-12s-19.69,3.72-19.69,12,8.81,15,19.69,15S151.29,143.82,151.29,135.54Z" style="fill:#ff6101"/><path d="M320.6,135.54c0-8.28-8.81-12-19.69-12s-19.69,3.72-19.69,12,8.81,15,19.69,15S320.6,143.82,320.6,135.54Z" style="fill:#ff6101"/></symbol></defs><title>Reddit logo - Brandlogos.net</title><path d="M223.93,322.07h0A61.93,61.93,0,0,0,162,384h0a61.76,61.76,0,0,0,18.14,43.79l-11.8,11.8a3.72,3.72,0,0,0,2.63,6.34h53A61.93,61.93,0,0,0,285.86,384h0A61.93,61.93,0,0,0,223.93,322.07Z" transform="translate(-162 -322.07)" style="fill:#ff4500"/><use width="432.21" height="377.72" transform="matrix(0.23, 0, 0, -0.23, 12.36, 104.73)" xlink:href="#Snoo"/><path d="M352.16,366.75l-6.89,16.38a12.89,12.89,0,0,0-4.88-.92,13.24,13.24,0,0,0-5.8,1.41,12,12,0,0,0-6.51,11.17v30H310.94V366.42h16.65v8.19h.33a21.65,21.65,0,0,1,17.63-9.05,15.62,15.62,0,0,1,6.62,1.19Z" transform="translate(-162 -322.07)" style="fill:#ff4500"/><path d="M348.85,395.77c0-16.86,11.55-30.21,28.85-30.21,15.67,0,26.9,11.45,26.9,27.55a35.05,35.05,0,0,1-.87,8H364.47c1.79,6.13,7.1,10.9,15.08,10.9,4.39,0,10.63-1.57,14-4.17l5.32,12.8c-4.94,3.36-12.47,5-19.09,5-18.49,0-30.91-11.93-30.91-29.88Zm15.29-5.37h24.67c0-7.48-5.1-11.45-11.34-11.45-7.05,0-11.82,4.55-13.34,11.45Z" transform="translate(-162 -322.07)" style="fill:#ff4500"/><path d="M551.66,340.21a10.47,10.47,0,1,1-10.47,10.47A10.51,10.51,0,0,1,551.66,340.21Zm8.57,84.57H543.09V366.42h17.14Z" transform="translate(-162 -322.07)" style="fill:#ff4500"/><path d="M452.15,341.26,452.1,372h-.33c-4.72-4.5-9.82-6.35-16.49-6.35-16.43,0-27.34,13.23-27.34,30s10.2,30,26.79,30c6.94,0,13.5-2.39,17.74-7.81H453v6.94h16.33V341.26H452.15Zm.81,69.61h-.57l-3.82-4a13.73,13.73,0,0,1-9.87,4c-8.4,0-14.27-6.64-14.27-15.25s5.87-15.25,14.27-15.25S453,387,453,395.62Z" transform="translate(-162 -322.07)" style="fill:#ff4500"/><path d="M517.61,341.26l-.05,30.7h-.33c-4.72-4.5-9.82-6.35-16.49-6.35-16.43,0-27.34,13.23-27.34,30s10.2,30,26.79,30c6.94,0,13.5-2.39,17.74-7.81h.49v6.94h16.33V341.26H517.61Zm.73,69.61h-.57l-3.82-4a13.73,13.73,0,0,1-9.87,4c-8.4,0-14.27-6.64-14.27-15.25s5.87-15.25,14.27-15.25,14.27,6.64,14.27,15.25v15.25Z" transform="translate(-162 -322.07)" style="fill:#ff4500"/><path d="M593.47,366.42H606V381H593.47v43.77H576.33V381H563.86V366.42h12.47V350.56h17.14Z" transform="translate(-162 -322.07)" style="fill:#ff4500"/></svg>